<?xml version="1.0" encoding="utf-8"?>
<!-- Generator: Adobe Illustrator 26.5.0, SVG Export Plug-In . SVG Version: 6.00 Build 0)  -->
<svg version="1.1" id="US_UK_Download_on_the" xmlns="http://www.w3.org/2000/svg" xmlns:xlink="http://www.w3.org/1999/xlink"
	 x="0px" y="0px" viewBox="0 0 135 40" style="enable-background:new 0 0 135 40;" xml:space="preserve">
<style type="text/css">
	.st0{fill:#A6A6A6;}
	.st1{fill:#FFFFFF;}
	.st2{fill-rule:evenodd;clip-rule:evenodd;fill:#FFFFFF;}
	.st3{clip-path:url(#SVGID_00000120556333115119538020000003719573611388708525_);}
	.st4{clip-path:url(#SVGID_00000160897566790753394370000009905054186713370525_);}
	.st5{clip-path:url(#SVGID_00000126303559055229591530000005461009563408392861_);}
</style>
<g>
	<path class="st0" d="M130.2,40H4.7C2.1,40,0,37.9,0,35.3V4.8c0-2.6,2.1-4.7,4.7-4.7h125.5c2.6,0,4.8,2.1,4.8,4.7v30.5
		C135,37.9,132.8,40,130.2,40L130.2,40z"/>
	<path d="M134,35.3c0,2.1-1.7,3.8-3.8,3.8H4.7c-2.1,0-3.8-1.7-3.8-3.8V4.8C0.9,2.7,2.6,1,4.7,1h125.5c2.1,0,3.8,1.7,3.8,3.8V35.3
		L134,35.3z"/>
	<g>
		<g>
			<path class="st1" d="M86.4,23c0,0.5-0.2,0.8-0.5,1.1c-0.3,0.3-0.8,0.4-1.5,0.4h-0.7l0.2,1.1h0.9c0.4,0,0.8-0.1,1.1-0.2
				c0.3-0.1,0.6-0.4,0.8-0.6c0.2-0.3,0.4-0.6,0.5-0.9c0.1-0.4,0.2-0.7,0.2-1.1v-3.1h-1.1V23H86.4z"/>
			<path class="st1" d="M87,16.8c-0.2,0-0.4,0.1-0.6,0.2c-0.2,0.2-0.2,0.3-0.2,0.6c0,0.2,0.1,0.4,0.2,0.6c0.2,0.2,0.4,0.2,0.6,0.2
				s0.4-0.1,0.6-0.2c0.2-0.2,0.2-0.4,0.2-0.6s-0.1-0.4-0.2-0.6C87.4,16.9,87.2,16.8,87,16.8z"/>
			<rect x="89.2" y="16.1" class="st1" width="1" height="6.8"/>
			<path class="st1" d="M97.2,18.7c0.2,0,0.3-0.1,0.5-0.2c0.1-0.1,0.2-0.3,0.2-0.5s-0.1-0.4-0.2-0.5s-0.3-0.2-0.5-0.2
				s-0.4,0.1-0.5,0.2s-0.2,0.3-0.2,0.5s0.1,0.3,0.2,0.5C96.8,18.6,97,18.7,97.2,18.7z"/>
			<path class="st1" d="M99.1,18.7c0.2,0,0.4-0.1,0.5-0.2s0.2-0.3,0.2-0.5s-0.1-0.4-0.2-0.5s-0.3-0.2-0.5-0.2s-0.4,0.1-0.5,0.2
				s-0.2,0.3-0.2,0.5s0.1,0.3,0.2,0.5C98.7,18.6,98.9,18.7,99.1,18.7z"/>
			<path class="st1" d="M106.3,17.2c0.2,0,0.4-0.1,0.6-0.2c0.2-0.2,0.2-0.4,0.2-0.6s-0.1-0.4-0.2-0.6c-0.2-0.2-0.3-0.2-0.6-0.2
				c-0.2,0-0.4,0.1-0.6,0.2c-0.2,0.2-0.2,0.3-0.2,0.6c0,0.2,0.1,0.4,0.2,0.6C105.9,17.1,106.1,17.2,106.3,17.2z"/>
			<path class="st1" d="M107.9,18.4c-0.2-0.2-0.4-0.4-0.6-0.5s-0.5-0.2-0.8-0.2s-0.5,0-0.7,0.1s-0.4,0.2-0.6,0.4
				c-0.2,0.2-0.3,0.3-0.4,0.6c-0.1,0.2-0.1,0.4-0.1,0.7c0,0.5,0.1,0.8,0.3,1.1c0.2,0.3,0.6,0.5,1,0.5h1.4c0,0.2,0,0.3-0.1,0.5
				c-0.1,0.1-0.3,0.2-0.6,0.2h-2.9h-0.1c-0.2,0-0.4-0.1-0.6-0.2s-0.3-0.3-0.3-0.6v-1.5h-1.1v1.4c0,0.3,0,0.5-0.1,0.6
				s-0.3,0.2-0.6,0.2h-5.1c-0.3,0-0.5-0.1-0.6-0.2s-0.2-0.3-0.2-0.6v-1.4H94v1.6c0,0.5,0.1,1,0.4,1.3s0.6,0.4,1.1,0.4h5.6
				c0.4,0,0.7-0.1,1-0.4c0.2,0.2,0.4,0.3,0.7,0.3c0.2,0.1,0.5,0.1,0.8,0.1h0.1h3.1c0.3,0,0.5-0.1,0.7-0.2s0.4-0.3,0.5-0.5
				s0.2-0.4,0.3-0.7c0.1-0.3,0.1-0.5,0.1-0.8V20c0-0.3,0-0.6-0.1-0.8C108.1,18.9,108,18.6,107.9,18.4z M106.2,20
				c-0.1,0-0.3,0-0.5-0.1s-0.2-0.2-0.2-0.4c0-0.2,0.1-0.4,0.2-0.5s0.3-0.2,0.6-0.2c0.2,0,0.3,0,0.4,0.1s0.2,0.2,0.3,0.3
				c0.1,0.1,0.2,0.3,0.2,0.4c0.1,0.2,0.1,0.3,0.1,0.5L106.2,20z"/>
			<path class="st1" d="M112.2,24.1c-0.2,0-0.4,0.1-0.5,0.2s-0.2,0.3-0.2,0.5s0.1,0.4,0.2,0.5s0.3,0.2,0.5,0.2s0.4-0.1,0.5-0.2
				s0.2-0.3,0.2-0.5s-0.1-0.3-0.2-0.5S112.4,24.1,112.2,24.1z"/>
			<path class="st1" d="M114.3,21c0,0.1,0,0.2,0,0.3c0,0.1,0,0.2-0.1,0.3c-0.1,0.1-0.1,0.1-0.2,0.2c-0.1,0-0.2,0.1-0.4,0.1h-1.4
				h-0.3c-0.3,0-0.4-0.1-0.6-0.2c-0.1-0.1-0.2-0.3-0.2-0.7v-4.9H110v5.1c0,0.6,0.2,1.1,0.5,1.3c0.3,0.3,0.7,0.4,1.3,0.4h0.4h1.7
				c0.5,0,0.9-0.2,1.2-0.5c0.3-0.3,0.4-0.7,0.4-1.2v-1.6h-1.1L114.3,21L114.3,21z"/>
			<path class="st1" d="M114,24.1c-0.2,0-0.4,0.1-0.5,0.2s-0.2,0.3-0.2,0.5s0.1,0.4,0.2,0.5s0.3,0.2,0.5,0.2s0.3-0.1,0.5-0.2
				c0.1-0.1,0.2-0.3,0.2-0.5s-0.1-0.3-0.2-0.5S114.2,24.1,114,24.1z"/>
			<path class="st1" d="M117.8,23c0,0.5-0.2,0.8-0.5,1.1c-0.3,0.3-0.8,0.4-1.5,0.4h-0.3l0.2,1.1h0.5c0.4,0,0.8-0.1,1.1-0.2
				c0.3-0.1,0.6-0.3,0.8-0.6c0.2-0.3,0.4-0.6,0.5-0.9c0.1-0.4,0.2-0.7,0.2-1.1v-3.1h-1.1L117.8,23L117.8,23z"/>
			<path class="st1" d="M125.2,20.9c-0.1-0.2-0.2-0.4-0.4-0.6l-2.4-2.5l-0.7,0.7l2.4,2.5c0.1,0.1,0.2,0.3,0.2,0.4s0,0.2-0.1,0.3
				c-0.1,0.1-0.2,0.1-0.4,0.1h-3.5l0.1,1.1h3.3c0.5,0,0.9-0.1,1.2-0.4c0.3-0.3,0.4-0.6,0.4-1C125.3,21.3,125.3,21.1,125.2,20.9z"/>
		</g>
		<g>
			<g>
				<path class="st1" d="M56.6,23.6c-1.2,0-2.1-0.9-2.1-2.1V11c0-1.2,0.9-2.1,2.1-2.1s2.1,0.9,2.1,2.1v10.5
					C58.7,22.6,57.8,23.6,56.6,23.6z"/>
				<path class="st1" d="M49.3,25.7H44c-1.2,0-2.1-0.9-2.1-2.1s0.9-2.1,2.1-2.1h4.2v-6.3c0-1.2,0.9-2.1,2.1-2.1s2.1,0.9,2.1,2.1v7.4
					C52.4,24.3,51,25.7,49.3,25.7z"/>
				<path class="st1" d="M61.9,29.9h-5.2c-1.2,0-2.1-0.9-2.1-2.1s0.9-2.1,2.1-2.1h4.2v-6.3c0-1.2,0.9-2.1,2.1-2.1s2.1,0.9,2.1,2.1
					v7.4C65,28.5,63.6,29.9,61.9,29.9z"/>
				<path class="st1" d="M75.5,25.7h-5.2c-1.8,0-3.2-1.4-3.2-3.2v-9.4c0-1.2,0.9-2.1,2.1-2.1s2.1,0.9,2.1,2.1v8.4h4.2
					c1.2,0,2.1,0.9,2.1,2.1C77.6,24.7,76.7,25.7,75.5,25.7z"/>
				<circle class="st2" cx="62.9" cy="13.1" r="2.1"/>
				<circle class="st2" cx="69.2" cy="29.9" r="2.1"/>
			</g>
		</g>
	</g>
</g>
<g>
	<g>
		<g>
			<defs>
				<path id="SVGID_1_" d="M35.6,14.9L35.6,14.9c-0.4-0.3-1.2-0.7-2.8-1.1c-0.5-0.1-1-0.2-1.6-0.3c-0.8-0.1-1.6-0.2-2.7-0.3h-0.1
					c-0.2-0.5-0.4-1-0.6-1.5c-0.1-0.3-0.2-0.6-0.4-0.9v-0.1c-0.4-1.1-0.9-2.2-1.7-3.2c-0.9-1.1-2.1-1.7-3.3-1.7S20,6.4,19.1,7.5
					c-0.8,1-1.3,2.1-1.7,3.2v0.1c-0.1,0.3-0.2,0.6-0.4,0.9c-0.2,0.5-0.4,1-0.6,1.5h-0.1c-1,0.1-1.9,0.2-2.7,0.3
					c-0.6,0.1-1.1,0.2-1.6,0.3c-1.5,0.4-2.4,0.8-2.8,1.1l0,0C9.1,15,9,15.2,9,15.4l0.1,1c0.2,1.5,0.4,3.2,0.8,5
					c0.3,1.4,0.6,2.8,1.1,4.1c0.2,0.5,0.4,1,0.6,1.5c1.6,3.2,4.5,5.6,8.1,6.4c0.9,0.2,1.8,0.3,2.8,0.3c0.9,0,1.9-0.1,2.8-0.3
					c3.6-0.8,6.6-3.3,8.2-6.6c0.2-0.4,0.4-0.8,0.5-1.2c1.1-3,1.5-6.2,1.9-8.8l0.2-1.5C35.9,15.2,35.8,15,35.6,14.9z M22.3,12.9
					c-1.3,0-2.4,0-3.4,0.1l0,0c0.1-0.1,0.1-0.3,0.2-0.4c0.1-0.3,0.3-0.6,0.4-0.9c0.3-0.7,0.6-1.4,0.9-2c0.2-0.3,0.3-0.5,0.5-0.8
					c0.3-0.3,0.8-0.8,1.5-0.8s1.2,0.5,1.5,0.8c0.2,0.2,0.4,0.5,0.5,0.8c0.3,0.6,0.6,1.3,0.9,2c0.1,0.3,0.2,0.6,0.4,0.9
					c0.1,0.1,0.1,0.3,0.2,0.4C24.7,13,23.6,12.9,22.3,12.9z"/>
			</defs>
			<clipPath id="SVGID_00000101074321063040369800000015089286232137358770_">
				<use xlink:href="#SVGID_1_"  style="overflow:visible;"/>
			</clipPath>
			<g style="clip-path:url(#SVGID_00000101074321063040369800000015089286232137358770_);">
				<g>
					<g>
						<defs>
							<rect id="SVGID_00000114773886950575809440000006313776624606304152_" x="3.8" y="0.7" width="37" height="38.1"/>
						</defs>
						<clipPath id="SVGID_00000114770858041219256400000016594190478034567308_">
							<use xlink:href="#SVGID_00000114773886950575809440000006313776624606304152_"  style="overflow:visible;"/>
						</clipPath>
						<g style="clip-path:url(#SVGID_00000114770858041219256400000016594190478034567308_);">
							<g>
								<defs>
									<rect id="SVGID_00000015341658330727936650000006683848798854407043_" x="3.8" y="0.7" width="37" height="38.1"/>
								</defs>
								<clipPath id="SVGID_00000078751811203228963750000004318349386729830576_">
									<use xlink:href="#SVGID_00000015341658330727936650000006683848798854407043_"  style="overflow:visible;"/>
								</clipPath>
								<g style="clip-path:url(#SVGID_00000078751811203228963750000004318349386729830576_);">
									
										<image style="overflow:visible;enable-background:new    ;" width="78" height="80" xlink:href="B3C16BB.jpg"  transform="matrix(0.48 0 0 0.48 3.84 0.64)">
									</image>
								</g>
							</g>
						</g>
					</g>
				</g>
			</g>
		</g>
	</g>
</g>
</svg>
