<?xml version="1.0" encoding="utf-8"?>
<!-- Generator: Adobe Illustrator 26.5.0, SVG Export Plug-In . SVG Version: 6.00 Build 0)  -->
<svg version="1.1" xmlns="http://www.w3.org/2000/svg" xmlns:xlink="http://www.w3.org/1999/xlink" x="0px" y="0px"
	 viewBox="0 0 429 127" style="enable-background:new 0 0 429 127;" xml:space="preserve">
<style type="text/css">
	.st0{fill:#A6A6A6;}
	.st1{fill:#FFFFFF;}
	.st2{fill:#121CFF;}
	.st3{fill:url(#SVGID_1_);}
	.st4{fill:#001AFF;}
	.st5{fill:#E6FAFF;fill-opacity:0.5;}
	.st6{fill:url(#SVGID_00000096057225661523274750000011637817629630035333_);}
	.st7{fill:url(#SVGID_00000131368566459970270570000017298437933441337251_);}
	.st8{fill:#FFFFFF;fill-opacity:0.4;}
	.st9{fill:none;stroke:url(#SVGID_00000173160483834532144470000018265825225021853600_);stroke-width:7.8615;stroke-opacity:0.25;}
	.st10{fill:none;}
</style>
<g id="Layer_1">
	<g>
		<path class="st0" d="M413.7,127.1H15c-8.3,0-15-6.8-15-15V15C0,6.7,6.7,0,15,0h398.7C422,0,429,6.7,429,15v97.1
			C429,120.3,422,127.1,413.7,127.1L413.7,127.1z"/>
		<path d="M425.9,112.1c0,6.7-5.4,12.2-12.2,12.2H15c-6.7,0-12.2-5.4-12.2-12.2V15C2.8,8.3,8.3,2.8,15,2.8h398.7
			c6.7,0,12.2,5.5,12.2,12.2L425.9,112.1L425.9,112.1z"/>
	</g>
</g>
<g id="Layer_2">
	<g>
		<g>
			<path class="st1" d="M75.6,47.1c0,0.7-0.1,1.3-0.2,1.8c-0.2,0.5-0.4,0.9-0.7,1.2c-0.3,0.3-0.7,0.5-1.2,0.7
				C72.9,51,72.4,51,71.7,51h-1.4v2.2h1.4c0.9,0,1.8-0.1,2.5-0.4s1.4-0.7,1.9-1.2c0.5-0.5,0.9-1.1,1.2-1.9c0.3-0.7,0.5-1.5,0.5-2.5
				v-6.5h-2.2V47.1z"/>
			<polygon class="st1" points="75,36.4 76.7,38.1 78.4,36.4 76.7,34.7 			"/>
			<rect x="80.4" y="33.2" class="st1" width="2.2" height="14.6"/>
			<polygon class="st1" points="186.3,35.2 184.6,33.5 182.9,35.2 184.6,36.9 			"/>
			<polygon class="st1" points="208.9,38.2 207.3,36.6 205.7,38.2 207.3,39.9 			"/>
			<polygon class="st1" points="171.5,34.9 169.8,33.1 168.1,34.8 169.8,36.6 			"/>
			<polygon class="st1" points="223.8,32.6 222,30.9 220.3,32.6 222.1,34.3 			"/>
			<rect x="93.1" y="35.9" class="st1" width="2.6" height="11.8"/>
			<polygon class="st1" points="204.8,38.2 203.2,36.6 201.6,38.2 203.2,39.8 			"/>
			<polygon class="st1" points="233.9,51.5 235.5,53.2 237.1,51.5 235.4,49.9 			"/>
			<path class="st1" d="M241.1,42.2c0-0.3-0.1-0.6-0.2-1c-0.1-0.3-0.1-0.6-0.2-0.9c-0.1-0.3-0.1-0.5-0.1-0.7c0-0.2-0.1-0.3-0.1-0.3
				l-2.1,0.6c0,0.1,0.1,0.2,0.1,0.4c0,0.2,0.1,0.4,0.1,0.6c0.1,0.2,0.1,0.5,0.2,0.8c0.1,0.3,0.1,0.5,0.1,0.8c0,0.3,0.1,0.5,0.1,0.7
				c0,0.2,0,0.4,0,0.6c0,0.4-0.1,0.7-0.2,0.9c-0.1,0.2-0.3,0.4-0.4,0.5c-0.2,0.1-0.3,0.2-0.5,0.2c-0.2,0-0.3,0-0.4,0h-4.2
				c-0.6,0-1,0-1.3-0.1c-0.3-0.1-0.6-0.2-0.7-0.4c-0.2-0.2-0.3-0.5-0.3-0.8c0-0.4-0.1-0.8-0.1-1.4v-9.8h-2.2v9.8
				c0,0.6,0,1.1,0.1,1.5c0,0.5,0.1,0.9,0.2,1.2c0.1,0.4,0.3,0.7,0.5,0.9c0.2,0.3,0.5,0.5,0.8,0.7c0.3,0.2,0.8,0.3,1.3,0.4
				c0.4,0.1,0.9,0.1,1.4,0.1v0h4.5c0.4,0,0.9-0.1,1.3-0.2c0.4-0.2,0.8-0.4,1.2-0.7c0.4-0.3,0.7-0.7,0.9-1.2c0.2-0.5,0.3-1.1,0.3-1.7
				c0-0.2,0-0.5-0.1-0.8C241.2,42.8,241.2,42.5,241.1,42.2z"/>
			<path class="st1" d="M247.7,47.1c0,0.7-0.1,1.3-0.2,1.8c-0.2,0.5-0.4,0.9-0.7,1.2c-0.3,0.3-0.7,0.5-1.2,0.7
				c-0.5,0.1-1.1,0.2-1.7,0.2h-1.4v2.2h1.4c0.9,0,1.8-0.1,2.5-0.4c0.7-0.3,1.4-0.7,1.9-1.2c0.5-0.5,0.9-1.1,1.2-1.9
				c0.3-0.7,0.5-1.5,0.5-2.5v-6.5h-2.2V47.1z"/>
			<polygon class="st1" points="237.7,51.5 239.3,53.2 241,51.5 239.3,49.9 			"/>
			<path class="st1" d="M261,44.1c-0.1-0.5-0.4-1.1-0.8-1.7c-0.7-1-1.2-1.8-1.6-2.4s-0.7-1.1-1-1.4c-0.2-0.3-0.4-0.6-0.5-0.7
				l-0.1-0.2l-0.6-0.9l-1.9,1.2l0.6,0.9c0,0,0.1,0.1,0.1,0.2s0.2,0.4,0.5,0.7c0.2,0.3,0.5,0.8,1,1.4c0.4,0.6,0.9,1.4,1.6,2.4
				c0.2,0.4,0.4,0.6,0.4,0.8c0,0.2,0.1,0.3,0.1,0.4c0,0.1,0,0.1,0,0.2c0,0.1-0.2,0.2-0.4,0.3c-0.2,0.1-0.5,0.2-1,0.3
				c-0.3,0-0.6,0.1-0.8,0.1c-0.2,0-0.4,0-0.4,0c-0.3,0-0.6,0-0.9,0c-0.4,0-0.7-0.1-1.1-0.2c-0.3-0.1-0.6-0.2-0.8-0.3l-1-0.5
				l-1.1,1.9l1,0.5c0.2,0.1,0.4,0.2,0.7,0.3c0.2,0.1,0.5,0.2,0.7,0.2c0.2,0.1,0.5,0.1,0.7,0.1c0.2,0,0.4,0.1,0.6,0.1
				c0.4,0,0.8,0.1,1.2,0.1c0.3,0,0.5,0,0.8,0c0.3,0,0.5,0,0.8-0.1c0.7-0.1,1.3-0.3,1.8-0.6c0.6-0.3,1-0.7,1.2-1.3
				c0.1-0.3,0.2-0.7,0.2-1.1C261.1,44.6,261.1,44.4,261,44.1z"/>
			<path class="st1" d="M225.7,39.7c-0.1-0.4-0.3-0.8-0.5-1.2c-0.2-0.4-0.4-0.7-0.7-1c-0.3-0.3-0.6-0.5-1-0.7
				c-0.4-0.2-0.9-0.3-1.4-0.3h-0.2c-0.5,0-1,0.1-1.4,0.3c-0.5,0.2-0.9,0.5-1.3,0.9c-0.4,0.4-0.6,0.8-0.8,1.3s-0.3,1-0.3,1.6
				c0,0.7,0.1,1.3,0.3,1.7c0.2,0.5,0.6,0.8,1,1.1c0.4,0.3,0.9,0.5,1.4,0.6c0.6,0.1,1.2,0.2,1.8,0.2h1.3c0,0.2-0.1,0.3-0.2,0.5
				c-0.1,0.2-0.3,0.3-0.5,0.4c-0.2,0.1-0.6,0.2-1,0.3c-0.4,0.1-1,0.1-1.6,0.1h-3.6h-0.4h-0.3c-0.1,0-0.3,0-0.4,0
				c-0.2,0-0.4-0.1-0.6-0.2c-0.2-0.1-0.4-0.3-0.5-0.4c-0.1-0.2-0.2-0.5-0.2-0.8v-3.3h-2.2v3.4c0,0.1,0,0.2,0,0.4
				c0,0.2-0.1,0.3-0.2,0.5c-0.1,0.1-0.3,0.3-0.6,0.4c-0.3,0.1-0.7,0.2-1.2,0.2h-10.8c-0.1,0-0.2,0-0.4,0c-0.2,0-0.4-0.1-0.5-0.2
				c-0.2-0.1-0.3-0.3-0.5-0.5c-0.1-0.2-0.2-0.6-0.2-1c0-0.2,0-0.5,0.1-0.8c0.1-0.3,0.1-0.6,0.2-0.9c0.1-0.3,0.1-0.6,0.2-0.8
				c0.1-0.3,0.1-0.5,0.2-0.6l-1.1-0.3l-1.1-0.3c0,0.1-0.1,0.2-0.2,0.5c-0.1,0.3-0.2,0.6-0.3,1c-0.1,0.4-0.2,0.8-0.2,1.2
				c-0.1,0.4-0.1,0.8-0.1,1.1c0,0.4,0,0.7,0.1,1.1c0.1,0.3,0.2,0.6,0.3,0.8c0.1,0.2,0.2,0.5,0.4,0.6c0.1,0.2,0.3,0.3,0.4,0.5
				c0.3,0.3,0.7,0.6,1.2,0.7s0.9,0.3,1.4,0.3h10.9c1.3,0,2.4-0.3,3.1-1c0.2,0.2,0.4,0.3,0.6,0.5c0.2,0.1,0.5,0.2,0.7,0.3
				c0.2,0.1,0.5,0.1,0.8,0.2c0.3,0,0.5,0.1,0.8,0.1h0.3h0.4h3.6c0.5,0,0.9,0,1.4-0.1c0.5-0.1,0.9-0.1,1.3-0.3
				c0.4-0.1,0.8-0.3,1.2-0.5c0.4-0.2,0.7-0.5,0.9-0.8c0.3-0.3,0.5-0.6,0.6-1c0.1-0.4,0.2-0.8,0.2-1.4v-1.4c0-0.5,0-0.9-0.1-1.4
				C225.9,40.6,225.9,40.1,225.7,39.7z M222.6,42.1c-0.3,0-0.6,0-0.9-0.1c-0.3,0-0.6-0.1-0.8-0.2c-0.2-0.1-0.4-0.3-0.6-0.5
				c-0.1-0.2-0.2-0.5-0.2-0.8c0-0.3,0.1-0.6,0.2-0.8c0.1-0.2,0.3-0.4,0.4-0.6c0.2-0.1,0.4-0.2,0.6-0.3c0.2-0.1,0.4-0.1,0.6-0.1
				c0.1,0,0.2,0,0.2,0c0.4,0,0.8,0.2,1,0.4c0.2,0.2,0.4,0.5,0.5,0.8c0.1,0.3,0.2,0.7,0.2,1c0,0.4,0,0.7,0.1,1H222.6z"/>
			<path class="st1" d="M108.4,32.5c-1-0.6-2.1-0.9-3.4-0.9c-1.3,0-2.5,0.3-3.5,0.9c-1,0.6-1.8,1.5-2.3,2.7s-0.8,2.6-0.8,4.1v0.9
				c0,1.5,0.3,2.9,0.8,4c0.5,1.2,1.3,2.1,2.3,2.7c1,0.6,2.2,0.9,3.5,0.9c1.3,0,2.4-0.3,3.4-0.9c1-0.6,1.8-1.5,2.3-2.7
				c0.5-1.2,0.8-2.5,0.8-4.1v-0.9c0-1.5-0.3-2.9-0.8-4.1C110.2,34,109.4,33.1,108.4,32.5z M108.8,40.1c0,1.8-0.3,3.1-1,4.1
				c-0.7,0.9-1.6,1.4-2.8,1.4c-1.2,0-2.2-0.5-2.8-1.4c-0.7-1-1-2.3-1-4.1v-0.9c0-1.7,0.4-3,1-4c0.7-0.9,1.6-1.4,2.8-1.4
				c1.2,0,2.2,0.5,2.8,1.4c0.7,0.9,1,2.3,1,4V40.1z"/>
			<path class="st1" d="M123.2,39.8c-0.7-0.5-1.7-0.9-3-1.2c-1.2-0.4-2.1-0.8-2.7-1.1c-0.5-0.4-0.8-0.9-0.8-1.5
				c0-0.7,0.2-1.2,0.7-1.6c0.5-0.4,1.2-0.6,2.1-0.6c1,0,1.7,0.2,2.2,0.7c0.5,0.5,0.8,1.1,0.8,1.9h2.8c0-0.9-0.2-1.7-0.7-2.5
				c-0.5-0.8-1.2-1.3-2-1.7c-0.9-0.4-1.9-0.6-3-0.6c-1.7,0-3,0.4-4.1,1.2c-1,0.8-1.6,1.9-1.6,3.2c0,1.5,0.7,2.6,2.2,3.6
				c0.8,0.5,1.8,0.9,3,1.3c1.3,0.4,2.2,0.8,2.7,1.1c0.5,0.4,0.7,0.9,0.7,1.6c0,0.6-0.2,1.2-0.7,1.6c-0.5,0.4-1.2,0.6-2.2,0.6
				c-1.1,0-2-0.2-2.6-0.7c-0.6-0.5-0.9-1.2-0.9-2.1h-2.8c0,1,0.3,1.9,0.8,2.6c0.5,0.7,1.3,1.3,2.2,1.8c1,0.4,2,0.6,3.2,0.6
				c1.7,0,3.1-0.4,4.1-1.2c1-0.8,1.5-1.8,1.5-3.2c0-0.8-0.2-1.5-0.5-2.1C124.5,40.8,124,40.3,123.2,39.8z"/>
			<path class="st1" d="M186.9,42.2c0-0.3-0.1-0.6-0.2-1c-0.1-0.3-0.1-0.6-0.2-0.9c-0.1-0.3-0.1-0.5-0.1-0.7c0-0.2-0.1-0.3-0.1-0.3
				l-2.1,0.6c0,0.1,0.1,0.2,0.1,0.4c0,0.2,0.1,0.4,0.1,0.6c0.1,0.2,0.1,0.5,0.2,0.8c0.1,0.3,0.1,0.5,0.1,0.8c0,0.3,0.1,0.5,0.1,0.7
				c0,0.2,0,0.4,0,0.6c0,0.4-0.1,0.7-0.2,0.9c-0.1,0.2-0.3,0.4-0.4,0.5c-0.2,0.1-0.3,0.2-0.5,0.2c-0.2,0-0.3,0-0.4,0h-2.3h-0.5h-1.4
				c-0.1,0-0.2,0-0.3,0c-0.1,0-0.3,0-0.5-0.1c-0.2-0.1-0.3-0.1-0.5-0.3c-0.1-0.1-0.3-0.3-0.3-0.5c0.4-0.2,0.7-0.4,1-0.6
				c0.3-0.2,0.5-0.3,0.5-0.3l-0.3-1.9c-0.8-0.3-1.5-0.5-2-0.7c-0.6-0.2-1.1-0.4-1.5-0.6c-0.4-0.2-0.8-0.3-1.1-0.4
				c-0.3-0.1-0.6-0.2-0.9-0.4c-0.3-0.1-0.6-0.2-0.9-0.3c-0.3-0.1-0.6-0.2-1-0.3c-0.4-0.1-0.8-0.2-1.2-0.2c-0.2,0-0.3,0-0.5,0
				c-0.5,0.1-0.9,0.3-1.3,0.6c-0.4,0.3-0.7,0.6-0.9,1c-0.2,0.4-0.4,0.8-0.6,1.3l2.1,0.6c0.1-0.3,0.2-0.5,0.4-0.7
				c0.1-0.2,0.3-0.3,0.5-0.4c0.2-0.1,0.4-0.1,0.6-0.1c0.2,0,0.5,0,0.8,0.1l5.1,1.8c-0.3,0.2-0.7,0.4-1.1,0.6
				c-0.4,0.2-0.8,0.4-1.3,0.5c-0.5,0.2-0.9,0.3-1.4,0.5c-0.5,0.2-1,0.3-1.5,0.4c-0.5,0.1-1,0.2-1.5,0.3c-0.5,0.1-1,0.1-1.5,0.1h-2.6
				h-0.3h-0.7c-0.7,0-1.2-0.1-1.5-0.4c-0.3-0.3-0.5-0.7-0.5-1.2v-3.2h-2.2v3.2c0,0.3-0.1,0.6-0.2,0.8c-0.1,0.2-0.2,0.4-0.3,0.5
				c-0.1,0.1-0.3,0.2-0.5,0.3c-0.2,0.1-0.4,0.1-0.5,0.1c-0.6,0-1.1-0.1-1.4-0.4c-0.3-0.3-0.4-0.7-0.4-1.3v-3.1h-2.2v3.1
				c0,0.4-0.1,0.7-0.2,0.9c-0.1,0.2-0.2,0.4-0.4,0.5c-0.1,0.1-0.3,0.2-0.5,0.2c-0.2,0-0.3,0.1-0.4,0.1c-0.6,0-1.1-0.1-1.4-0.4
				c-0.3-0.3-0.4-0.7-0.4-1.3v-3.1h-2.2v3.1c0,0.3,0,0.5-0.1,0.7c0,0.2-0.1,0.4-0.3,0.5c-0.1,0.1-0.4,0.3-0.6,0.3
				c-0.3,0.1-0.6,0.1-1,0.1h-0.8h-0.4c-0.2,0-0.5,0-0.8-0.1c-0.3,0-0.6-0.1-0.9-0.3c-0.3-0.2-0.6-0.4-0.8-0.7
				c-0.2-0.3-0.4-0.7-0.6-1.2l-1.8-7.3l-2.1,0.5c0,0.2,0.1,0.3,0.1,0.5c0,0.1,0.1,0.3,0.1,0.5c-0.6,0.2-1.3,0.5-1.9,0.8
				c-0.6,0.3-1.1,0.7-1.6,1.1c-0.5,0.4-0.8,0.9-1.1,1.5c-0.3,0.6-0.4,1.2-0.4,1.9c0,0.5,0.1,1,0.2,1.4c0.1,0.4,0.4,0.8,0.6,1.1
				c0.3,0.3,0.6,0.6,0.9,0.8c0.4,0.2,0.7,0.4,1.1,0.5c0.4,0.1,0.7,0.1,1,0.1c0.1,0,0.3,0,0.4,0c0.4,0,0.9-0.1,1.4-0.3
				c0.4-0.1,0.7-0.3,0.9-0.5c0.3-0.2,0.5-0.5,0.7-0.8c0.2,0.4,0.4,0.8,0.8,1.1c0.3,0.3,0.7,0.6,1.1,0.8c0.4,0.2,0.9,0.4,1.4,0.5
				c0.5,0.1,1,0.2,1.5,0.2v0h0h0.4h0.8c0.7,0,1.3-0.1,1.8-0.2c0.5-0.2,1-0.4,1.4-0.8c0.3,0.3,0.8,0.5,1.2,0.7c0.5,0.2,1,0.3,1.6,0.3
				h0.1c0.4,0,0.9-0.1,1.3-0.3c0.4-0.2,0.8-0.4,1.2-0.8c0.4,0.3,0.8,0.6,1.3,0.8c0.5,0.2,1,0.3,1.7,0.3c0.5,0,1-0.1,1.4-0.3
				c0.5-0.2,0.9-0.4,1.2-0.8c0.4,0.4,0.8,0.6,1.3,0.8c0.5,0.2,1.1,0.3,1.8,0.3h0.7h0.3h2.6c0.9,0,1.7-0.1,2.6-0.3
				c0.9-0.2,1.7-0.4,2.5-0.7c0.8-0.3,1.6-0.6,2.3-0.9c0.1,0,0.1-0.1,0.2-0.1c0.2,0.4,0.5,0.8,0.9,1.1v0c0.4,0.3,0.8,0.5,1.2,0.7
				c0.4,0.1,0.9,0.2,1.5,0.2h1.4h0.5h2.2c0.4,0,0.9-0.1,1.3-0.2c0.4-0.2,0.8-0.4,1.2-0.7c0.4-0.3,0.6-0.7,0.9-1.2
				c0.2-0.5,0.3-1.1,0.3-1.7c0-0.2,0-0.5-0.1-0.8C187,42.8,186.9,42.5,186.9,42.2z M140,42.9c-0.1,0.4-0.2,0.7-0.5,1
				c-0.2,0.2-0.5,0.4-0.9,0.6c-0.3,0.1-0.5,0.1-0.8,0.1h-0.1c-0.3,0-0.6-0.1-0.9-0.2c-0.3-0.1-0.5-0.3-0.7-0.6
				c-0.2-0.2-0.3-0.5-0.3-0.9c0-0.7,0.3-1.3,0.9-1.9s1.5-1,2.7-1.4c0.1,0.3,0.1,0.5,0.2,0.8c0.1,0.3,0.1,0.5,0.2,0.8
				c0.1,0.3,0.1,0.5,0.1,0.7c0,0.2,0,0.3,0,0.4C140,42.6,140,42.7,140,42.9z"/>
			<path class="st1" d="M94.4,31.4c-0.5,0-0.9,0.1-1.1,0.4c-0.3,0.3-0.4,0.6-0.4,1c0,0.4,0.1,0.7,0.4,1c0.3,0.3,0.6,0.4,1.1,0.4
				c0.5,0,0.8-0.1,1.1-0.4c0.3-0.3,0.4-0.6,0.4-1c0-0.4-0.1-0.7-0.4-1C95.3,31.5,94.9,31.4,94.4,31.4z"/>
		</g>
		<g>
			<path class="st1" d="M162,74c-0.7-0.7-1.5-1.2-2.4-1.6c-0.9-0.4-1.9-0.6-2.9-0.6h-13.1c-0.5,0-1-0.1-1.5-0.3
				c-0.5-0.2-0.9-0.5-1.3-0.8c-0.4-0.3-0.7-0.7-0.8-1.2s-0.3-0.9-0.3-1.4v-4.5h-7.6v9.7c0,0.5,0,1-0.2,1.5c-0.2,0.5-0.5,0.9-0.8,1.3
				c-0.4,0.4-0.8,0.7-1.3,0.9c-0.5,0.2-1,0.3-1.6,0.3c-0.5,0-1.1-0.1-1.6-0.3c-0.5-0.2-0.9-0.5-1.3-0.9c-0.4-0.4-0.6-0.8-0.8-1.3
				c-0.2-0.5-0.2-1-0.2-1.5v-2.9v-6.9h-7.5v9.6c0,1-0.4,1.9-1.1,2.6c-0.7,0.7-1.7,1.1-2.8,1.1c-1,0-2-0.4-2.8-1.1
				c-0.7-0.7-1.1-1.6-1.1-2.6v-2.1v-7.5h-7.5v13.9c0,1.6-0.4,3.2-1,4.6c-0.7,1.5-1.7,2.8-2.9,3.8c-1.2,1.1-2.7,1.9-4.3,2.4
				c-1.6,0.5-3.3,0.7-5,0.5c-3-0.4-5.8-1.8-7.8-4c-2-2.2-3.1-5-3-7.9v-6.2c0-0.9-0.2-1.8-0.6-2.7c-0.4-0.9-1-1.6-1.7-2.3
				c-0.7-0.6-1.5-1.2-2.4-1.5c-0.9-0.3-1.9-0.5-2.9-0.5V77c-0.1,4.6,1.6,9,4.7,12.5c3.1,3.5,7.5,5.8,12.2,6.5
				c4.6,0.6,9.2-0.4,13.1-2.8c3.9-2.3,6.8-5.9,8.1-10c1.5,0.7,3.1,1,4.8,1c2.8,0,5.5-1,7.6-2.8c1.3,1.2,2.9,2,4.6,2.5
				c1.7,0.5,3.6,0.5,5.3,0.2c1.8-0.3,3.4-1.1,4.8-2.1c1.4-1.1,2.5-2.4,3.3-4c1.5,0.8,3.3,1.1,5,1.2h20.6c0-0.9-0.2-1.9-0.5-2.7
				C163.3,75.5,162.7,74.7,162,74z"/>
			<path class="st1" d="M240.1,96c2,0,3.9-0.7,5.3-2.1c1.4-1.3,2.2-3.1,2.2-5V75.6h-7.5V96z"/>
			<path class="st1" d="M170.7,95.8c2,0,3.9-0.7,5.3-2.1s2.2-3.1,2.2-5V63.7h-7.5V95.8z"/>
			<path class="st1" d="M220.2,70.8c0.3-0.1,0.7-0.1,1-0.1h5.7c2,0,3.9-0.7,5.3-2c1.4-1.3,2.2-3.1,2.2-5h-13.3
				c-1.3,0-2.6,0.3-3.8,0.8c-1.2,0.5-2.3,1.2-3.2,2.1c-1.9,1.8-3,4.2-3,6.7c0,1.2,0.3,2.5,0.8,3.6c0.5,1.1,1.3,2.2,2.2,3
				c0.9,0.9,2,1.6,3.3,2.1c1.2,0.5,2.5,0.7,3.8,0.7h3.5c-1.2,1.8-2.9,3.3-4.9,4.3c-2,1-4.2,1.6-6.5,1.6c-3.5,0-6.9-1.2-9.4-3.6
				c-2.5-2.3-4-5.5-4-8.8V63.7h-7.7v12.7c0.1,5.1,2.2,9.9,6,13.6c3.8,3.6,8.9,5.7,14.2,5.9c5.4,0.2,10.6-1.6,14.6-5
				c4-3.4,6.5-8.1,7-13.1c0-0.5,0-1.6,0-1.9h-13c-0.7,0-1.4-0.3-1.9-0.7c-0.5-0.5-0.8-1.2-0.8-1.9c0-0.7,0.3-1.4,0.8-1.9
				C219.6,71.1,219.9,70.9,220.2,70.8z"/>
			<path class="st1" d="M145.8,84.3c0,0.8,0.2,1.5,0.5,2.2c0.3,0.7,0.8,1.3,1.3,1.9c0.6,0.5,1.2,1,2,1.2c0.7,0.3,1.5,0.4,2.3,0.4
				h6.1V96c1.6,0,3.1-0.6,4.3-1.7c1.1-1.1,1.8-2.5,1.8-4v-6H158H145.8z"/>
			<path class="st1" d="M246.9,63.8v-0.2c-2,0-3.9,0.7-5.3,2.1c-1.4,1.3-2.2,3.1-2.2,5h15c1.9,0,3.8-0.7,5.2-2
				c1.4-1.3,2.2-3,2.2-4.9H246.9z"/>
		</g>
	</g>
	<g>
		<rect x="336.9" y="91.9" class="st2" width="46" height="7.3"/>
		<ellipse class="st2" cx="359.5" cy="82.3" rx="34.7" ry="22.2"/>
		<ellipse class="st2" cx="359.5" cy="82.3" rx="37.1" ry="23.8"/>
		<path class="st1" d="M382.1,100.2h-45.3c-8.3,0-15.1-6.8-15.1-15.1V39.8c0-8.3,6.8-15.1,15.1-15.1h45.3c8.3,0,15.1,6.8,15.1,15.1
			v45.3C397.2,93.4,390.4,100.2,382.1,100.2z"/>
		
			<linearGradient id="SVGID_1_" gradientUnits="userSpaceOnUse" x1="326.4466" y1="21.9339" x2="387.9406" y2="89.1102" gradientTransform="matrix(1 0 0 -1 0 127.8898)">
			<stop  offset="0" style="stop-color:#1D62F0"/>
			<stop  offset="1" style="stop-color:#1AD5FD"/>
		</linearGradient>
		<path class="st3" d="M397.2,48.8v36.3c0,8.3-6.8,15.1-15.1,15.1h-45.3c-8.3,0-15.1-6.8-15.1-15.1V48.8c2.8,0,8.3,0,14.1,0
			c8.2,0.1,15.2,5.8,15.2,5.8l8.6,7.8c0,0,0.7-1.1,7.9-7.3c7.2-6.2,16-6.4,16-6.4H397.2z"/>
		<ellipse transform="matrix(0.5 -0.866 0.866 0.5 118.3979 357.0515)" class="st4" cx="368.4" cy="76" rx="15.4" ry="22.3"/>
		<ellipse transform="matrix(0.5 -0.866 0.866 0.5 132.002 323.4703)" class="st5" cx="346.1" cy="47.4" rx="25.6" ry="27.6"/>
		
			<linearGradient id="SVGID_00000176008824932878902970000010017522218383659927_" gradientUnits="userSpaceOnUse" x1="357.7734" y1="81.2812" x2="374.8004" y2="92.3463" gradientTransform="matrix(1 0 0 -1 0 127.8898)">
			<stop  offset="0" style="stop-color:#1D62F0"/>
			<stop  offset="1" style="stop-color:#1AD5FD"/>
		</linearGradient>
		<path style="fill:url(#SVGID_00000176008824932878902970000010017522218383659927_);" d="M359.5,48.8c0,0,6.1,0.1,10.4-5.3
			c3.9-4.9,3.1-10.2,3.1-10.2s-5.8,0.2-10.1,5.1C359,42.8,359.5,48.8,359.5,48.8z"/>
		
			<linearGradient id="SVGID_00000080909905122873239290000012061210204177219766_" gradientUnits="userSpaceOnUse" x1="357.2443" y1="82.0954" x2="374.2713" y2="93.1605" gradientTransform="matrix(1 0 0 -1 0 127.8898)">
			<stop  offset="0" style="stop-color:#1D62F0"/>
			<stop  offset="1" style="stop-color:#1AD5FD"/>
		</linearGradient>
		<path style="fill:url(#SVGID_00000080909905122873239290000012061210204177219766_);" d="M359.5,48.8c0,0,0.8-3.8,5.1-9.1
			c3.9-4.9,8.4-6.4,8.4-6.4s-5.8,0.2-10.1,5.1C359,42.8,359.5,48.8,359.5,48.8z"/>
		<path class="st1" d="M359.5,48.8c0,0,0.8-3.8,5.1-9.1c3.9-4.9,8.4-6.4,8.4-6.4s-5.8,0.2-10.1,5.1C359,42.8,359.5,48.8,359.5,48.8z
			"/>
		<path class="st1" d="M359.5,83.2c-2.7,0-5.4-0.5-7.9-1.6c-2.4-1-4.6-2.5-6.4-4.4c-1.9-1.9-3.3-4-4.3-6.5c-1.1-2.5-1.6-5.2-1.6-7.9
			c0-1.7,1.4-3,3-3c1.7,0,3,1.4,3,3c0,7.9,6.4,14.3,14.2,14.3c7.8,0,14.2-6.4,14.2-14.3c0-1.7,1.4-3,3-3c1.7,0,3,1.4,3,3
			c0,2.7-0.5,5.4-1.6,7.9c-1,2.4-2.5,4.6-4.3,6.5c-1.9,1.9-4,3.3-6.4,4.4C364.9,82.7,362.2,83.2,359.5,83.2z"/>
		<circle class="st1" cx="376.4" cy="62.9" r="2.8"/>
		<circle class="st1" cx="341.8" cy="62.9" r="2.8"/>
		
			<ellipse transform="matrix(0.5272 -0.8498 0.8498 0.5272 118.858 343.4762)" class="st8" cx="368.1" cy="64.9" rx="14.4" ry="18.8"/>
		
			<linearGradient id="SVGID_00000162331201537012360450000017420209440002998461_" gradientUnits="userSpaceOnUse" x1="382.9744" y1="100.5732" x2="336.3834" y2="30.8789" gradientTransform="matrix(1 0 0 -1 0 127.8898)">
			<stop  offset="0" style="stop-color:#1F4CEB"/>
			<stop  offset="1" style="stop-color:#3F69FF;stop-opacity:0.5"/>
		</linearGradient>
		
			<path style="fill:none;stroke:url(#SVGID_00000162331201537012360450000017420209440002998461_);stroke-width:7.8615;stroke-opacity:0.25;" d="
			M337.5,24.7h44c8.7,0,15.7,7,15.7,15.7v44c0,8.7-7,15.7-15.7,15.7h-44c-8.7,0-15.7-7-15.7-15.7v-44
			C321.7,31.8,328.8,24.7,337.5,24.7z"/>
		<path class="st10" d="M359.5,24.7h-22.4c-8.5,0-15.4,6.9-15.4,15.4v22.4h37.8V24.7z"/>
		<path class="st10" d="M397.4,40.1c0-8.5-6.9-15.4-15.4-15.4h-22.4v37.8h37.8V40.1z"/>
		<path class="st10" d="M359.5,62.6h-37.7v22.6c0,8.3,6.8,15.1,15.1,15.1h22.6V62.6z"/>
		<path class="st10" d="M397.2,62.6h-37.7v37.7H382c8.4,0,15.2-6.8,15.2-15.2V62.6z"/>
	</g>
</g>
</svg>
