<?xml version="1.0" encoding="utf-8"?>
<!-- Generator: Adobe Illustrator 26.5.0, SVG Export Plug-In . SVG Version: 6.00 Build 0)  -->
<svg version="1.1" id="US_UK_Download_on_the" xmlns="http://www.w3.org/2000/svg" xmlns:xlink="http://www.w3.org/1999/xlink"
	 x="0px" y="0px" viewBox="-472 251 135 40" style="enable-background:new -472 251 135 40;" xml:space="preserve">
<style type="text/css">
	.st0{fill:none;}
	.st1{fill:#A6A6A6;}
	.st2{fill:#FFFFFF;}
	.st3{fill:#0091EA;}
</style>
<rect x="-102.7" y="360.2" class="st0" width="4.6" height="7"/>
<g>
	<path class="st1" d="M-341.8,291h-125.5c-2.6,0-4.7-2.1-4.7-4.7v-30.5c0-2.6,2.1-4.7,4.7-4.7h125.5c2.6,0,4.8,2.1,4.8,4.7v30.5
		C-337,288.9-339.2,291-341.8,291L-341.8,291z"/>
	<path d="M-338,286.3c0,2.1-1.7,3.8-3.8,3.8h-125.5c-2.1,0-3.8-1.7-3.8-3.8v-30.5c0-2.1,1.7-3.8,3.8-3.8h125.5
		c2.1,0,3.8,1.7,3.8,3.8L-338,286.3L-338,286.3z"/>
</g>
<g>
	<g>
		<path class="st2" d="M-385.6,274c0,0.5-0.2,0.8-0.5,1.1c-0.3,0.3-0.8,0.4-1.5,0.4h-0.7l0.2,1.1l0.9,0c0.4,0,0.8-0.1,1.1-0.2
			c0.3-0.1,0.6-0.4,0.8-0.6c0.2-0.3,0.4-0.6,0.5-0.9c0.1-0.4,0.2-0.7,0.2-1.1v-3.1h-1.1V274z"/>
		<path class="st2" d="M-385,267.8c-0.2,0-0.4,0.1-0.6,0.2c-0.2,0.2-0.2,0.3-0.2,0.6c0,0.2,0.1,0.4,0.2,0.6c0.2,0.2,0.4,0.2,0.6,0.2
			c0.2,0,0.4-0.1,0.6-0.2c0.2-0.2,0.2-0.4,0.2-0.6c0-0.2-0.1-0.4-0.2-0.6C-384.6,267.9-384.8,267.8-385,267.8z"/>
		<rect x="-382.8" y="267.1" class="st2" width="1" height="6.8"/>
		<path class="st2" d="M-374.8,269.7c0.2,0,0.3-0.1,0.5-0.2c0.1-0.1,0.2-0.3,0.2-0.5c0-0.2-0.1-0.4-0.2-0.5
			c-0.1-0.1-0.3-0.2-0.5-0.2c-0.2,0-0.4,0.1-0.5,0.2c-0.1,0.1-0.2,0.3-0.2,0.5c0,0.2,0.1,0.3,0.2,0.5
			C-375.2,269.6-375,269.7-374.8,269.7z"/>
		<path class="st2" d="M-372.9,269.7c0.2,0,0.4-0.1,0.5-0.2c0.1-0.1,0.2-0.3,0.2-0.5c0-0.2-0.1-0.4-0.2-0.5
			c-0.1-0.1-0.3-0.2-0.5-0.2c-0.2,0-0.4,0.1-0.5,0.2c-0.1,0.1-0.2,0.3-0.2,0.5c0,0.2,0.1,0.3,0.2,0.5
			C-373.3,269.6-373.1,269.7-372.9,269.7z"/>
		<path class="st2" d="M-365.7,268.2c0.2,0,0.4-0.1,0.6-0.2c0.2-0.2,0.2-0.4,0.2-0.6c0-0.2-0.1-0.4-0.2-0.6
			c-0.2-0.2-0.3-0.2-0.6-0.2c-0.2,0-0.4,0.1-0.6,0.2c-0.2,0.2-0.2,0.3-0.2,0.6c0,0.2,0.1,0.4,0.2,0.6
			C-366.1,268.1-365.9,268.2-365.7,268.2z"/>
		<path class="st2" d="M-364.1,269.4c-0.2-0.2-0.4-0.4-0.6-0.5c-0.2-0.1-0.5-0.2-0.8-0.2c-0.3,0-0.5,0-0.7,0.1
			c-0.2,0.1-0.4,0.2-0.6,0.4c-0.2,0.2-0.3,0.3-0.4,0.6c-0.1,0.2-0.1,0.4-0.1,0.7c0,0.5,0.1,0.8,0.3,1.1c0.2,0.3,0.6,0.5,1,0.5l1.4,0
			c0,0.2,0,0.3-0.1,0.5c-0.1,0.1-0.3,0.2-0.6,0.2h-2.9h-0.1c-0.2,0-0.4-0.1-0.6-0.2c-0.2-0.1-0.3-0.3-0.3-0.6v-1.5h-1.1v1.4
			c0,0.3,0,0.5-0.1,0.6c-0.1,0.1-0.3,0.2-0.6,0.2h-5.1c-0.3,0-0.5-0.1-0.6-0.2c-0.1-0.1-0.2-0.3-0.2-0.6v-1.4h-1.1v1.6
			c0,0.5,0.1,1,0.4,1.3c0.3,0.3,0.6,0.4,1.1,0.4h5.6c0.4,0,0.7-0.1,1-0.4c0.2,0.2,0.4,0.3,0.7,0.3c0.2,0.1,0.5,0.1,0.8,0.1h0.1h3.1
			c0.3,0,0.5-0.1,0.7-0.2c0.2-0.1,0.4-0.3,0.5-0.5c0.1-0.2,0.2-0.4,0.3-0.7c0.1-0.3,0.1-0.5,0.1-0.8V271c0-0.3,0-0.6-0.1-0.8
			C-363.9,269.9-364,269.6-364.1,269.4z M-365.8,271c-0.1,0-0.3,0-0.5-0.1c-0.2-0.1-0.2-0.2-0.2-0.4c0-0.2,0.1-0.4,0.2-0.5
			c0.1-0.1,0.3-0.2,0.6-0.2c0.2,0,0.3,0,0.4,0.1c0.1,0.1,0.2,0.2,0.3,0.3c0.1,0.1,0.2,0.3,0.2,0.4c0.1,0.2,0.1,0.3,0.1,0.5
			L-365.8,271z"/>
		<path class="st2" d="M-359.8,275.1c-0.2,0-0.4,0.1-0.5,0.2c-0.1,0.1-0.2,0.3-0.2,0.5c0,0.2,0.1,0.4,0.2,0.5
			c0.1,0.1,0.3,0.2,0.5,0.2c0.2,0,0.4-0.1,0.5-0.2c0.1-0.1,0.2-0.3,0.2-0.5c0-0.2-0.1-0.3-0.2-0.5
			C-359.4,275.1-359.6,275.1-359.8,275.1z"/>
		<path class="st2" d="M-357.7,272c0,0.1,0,0.2,0,0.3c0,0.1,0,0.2-0.1,0.3c-0.1,0.1-0.1,0.1-0.2,0.2c-0.1,0-0.2,0.1-0.4,0.1h-1.4
			h-0.3c-0.3,0-0.4-0.1-0.6-0.2c-0.1-0.1-0.2-0.3-0.2-0.7v-4.9h-1.1v5.1c0,0.6,0.2,1.1,0.5,1.3c0.3,0.3,0.7,0.4,1.3,0.4h0.4h1.7
			c0.5,0,0.9-0.2,1.2-0.5c0.3-0.3,0.4-0.7,0.4-1.2v-1.6h-1.1V272z"/>
		<path class="st2" d="M-358,275.1c-0.2,0-0.4,0.1-0.5,0.2c-0.1,0.1-0.2,0.3-0.2,0.5c0,0.2,0.1,0.4,0.2,0.5c0.1,0.1,0.3,0.2,0.5,0.2
			c0.2,0,0.3-0.1,0.5-0.2c0.1-0.1,0.2-0.3,0.2-0.5c0-0.2-0.1-0.3-0.2-0.5C-357.6,275.1-357.8,275.1-358,275.1z"/>
		<path class="st2" d="M-354.2,274c0,0.5-0.2,0.8-0.5,1.1c-0.3,0.3-0.8,0.4-1.5,0.4h-0.3l0.2,1.1l0.5,0c0.4,0,0.8-0.1,1.1-0.2
			c0.3-0.1,0.6-0.3,0.8-0.6c0.2-0.3,0.4-0.6,0.5-0.9c0.1-0.4,0.2-0.7,0.2-1.1v-3.1h-1.1V274z"/>
		<path class="st2" d="M-346.8,271.9c-0.1-0.2-0.2-0.4-0.4-0.6l-2.4-2.5l-0.7,0.7l2.4,2.5c0.1,0.1,0.2,0.3,0.2,0.4
			c0,0.1,0,0.2-0.1,0.3c-0.1,0.1-0.2,0.1-0.4,0.1h-3.5l0.1,1.1h3.3c0.5,0,0.9-0.1,1.2-0.4c0.3-0.3,0.4-0.6,0.4-1
			C-346.7,272.3-346.7,272.1-346.8,271.9z"/>
	</g>
	<g id="XMLID_15_">
		<g id="XMLID_16_">
			<circle id="XMLID_20_" class="st3" cx="-450.9" cy="271" r="12.2"/>
			<g id="XMLID_17_">
				<path id="XMLID_19_" class="st2" d="M-443.5,269.6c-0.1-2.3-2-4.1-4.3-4.1c-1.3,0-2.5,0.6-3.2,1.5c-0.8-0.9-2-1.5-3.2-1.5
					c-2.3,0-4.2,1.8-4.3,4c0,0.1,0,0.1,0,0.2v4.9c0,0.6,0.5,1.1,1.1,1.1h0c0.6,0,1.1-0.5,1.1-1.1v-4.7l0,0c0-1.2,1-2.1,2.1-2.1
					c1.2,0,2.1,1,2.1,2.1l0,0v4c0,0.6,0.5,1.1,1.1,1.1h0c0.6,0,1.1-0.5,1.1-1.1v-4c0-1.2,1-2.1,2.1-2.1s2.1,1,2.1,2.1l0,0v4.7
					c0,0.6,0.5,1.1,1.1,1.1h0c0.6,0,1.1-0.5,1.1-1.1v-4.8C-443.5,269.6-443.5,269.6-443.5,269.6z"/>
				<path id="XMLID_18_" class="st2" d="M-447.6,276c-0.1-0.1-0.2,0.1-0.2,0.1c-0.6,0.7-1.8,1.1-3.1,1.1s-2.5-0.4-3.1-1.1
					c0,0-0.2-0.2-0.2-0.1c-0.1,0.1,0,0.2,0,0.2c0.8,1.1,1.9,1.6,3.3,1.6s2.5-0.5,3.3-1.6C-447.6,276.2-447.5,276.1-447.6,276z"/>
			</g>
		</g>
	</g>
	<g>
		<path class="st2" d="M-428.3,272.3c0.4,0,0.7-0.1,1-0.4c0.1-0.1,0.1-0.2,0.2-0.3c0.1,0.1,0.1,0.2,0.2,0.3c0.3,0.3,0.6,0.4,0.9,0.4
			c0.4,0,0.7-0.1,0.9-0.4c0.3-0.3,0.4-0.6,0.4-1c0-0.4-0.1-0.7-0.4-0.9c-0.3-0.3-0.6-0.4-0.9-0.4c-0.4,0-0.7,0.1-0.9,0.4
			c-0.1,0.1-0.1,0.2-0.2,0.3c-0.1-0.1-0.1-0.2-0.2-0.3c-0.3-0.3-0.6-0.4-1-0.4c-0.4,0-0.7,0.1-0.9,0.4c-0.3,0.3-0.4,0.6-0.4,0.9
			s0.1,0.7,0.4,1C-429,272.2-428.6,272.3-428.3,272.3z"/>
		<path class="st2" d="M-404.8,269.2c-0.3,0-0.5,0.1-0.7,0.3c-0.2,0.2-0.3,0.4-0.3,0.7c0,0.2,0.1,0.5,0.2,0.9
			c0.1,0.4,0.2,0.7,0.2,0.9c0,0.7-0.5,1.1-1.5,1.1h-0.4h-0.6h-0.2c-0.9,0-1.8-0.4-2.6-1.2c-1-1-1.6-1.6-2-2
			c-1.2-1.2-2.2-2.1-3.1-2.8c-0.1-0.1-0.2-0.2-0.2-0.4c0-0.1,0.1-0.2,0.3-0.3c1.7-0.7,3.6-1.2,5.5-1.7c0.6-0.1,0.9-0.5,0.9-1
			c0-0.7-0.4-1-1.2-1c-0.1,0-0.3,0-0.5,0.1c-2.9,0.7-5,1.4-6.3,2.2c-0.6,0.4-0.9,1-0.9,1.8c0,0.4,0.1,0.7,0.2,1
			c0.2,0.4,1,1.2,2.3,2.3c1.2,1,1.7,1.7,1.7,2c0,0.5-0.5,0.8-1.5,0.9c-0.2,0-1,0-2.4,0h-0.3h-0.3c-0.9,0-1.5-0.4-1.6-1.1
			c-0.1-0.4-0.1-0.7-0.2-0.8c-0.1-0.3-0.4-0.5-0.7-0.5c-0.3,0-0.6,0.2-0.8,0.6c-0.3,0.7-0.5,1-0.6,1.2c-0.6,0.8-2.2,1.2-4.9,1.2
			h-1.3c-1.8,0-3-0.2-3.7-0.6c-0.4-0.3-0.7-0.7-0.7-1.3c0-0.2,0-0.4,0.1-0.8c0.1-0.3,0.1-0.6,0.1-0.8c0-0.5-0.2-0.8-0.8-0.8
			c-0.5,0-0.8,0.4-1.1,1.2c-0.2,0.6-0.3,1.2-0.3,1.8c0,2.4,2,3.6,6.1,3.6c3.9,0,6.4-0.6,7.3-1.8c0.4,0.8,1.2,1.3,2.4,1.3h0.1h0.6h0
			c1.8,0,3-0.1,3.8-0.3c1.1-0.3,1.8-1,2.1-2.1c1.2,1.6,2.6,2.4,4.3,2.4h0.1h0.6h0.2c1.2,0,2-0.3,2.7-1c0.7-0.7,1-1.6,1-2.8
			C-403.5,270.1-404,269.2-404.8,269.2z"/>
		<path class="st2" d="M-406.5,276.8c-0.3,0-0.6,0.1-0.8,0.4c-0.2,0.2-0.2,0.3-0.3,0.5c-0.1-0.2-0.2-0.4-0.3-0.5
			c-0.2-0.2-0.5-0.4-0.8-0.4c-0.3,0-0.6,0.1-0.8,0.3c-0.2,0.2-0.4,0.5-0.4,0.8c0,0.3,0.1,0.6,0.4,0.8c0.2,0.2,0.5,0.4,0.8,0.4
			c0.3,0,0.6-0.1,0.8-0.4c0.2-0.2,0.2-0.3,0.3-0.5c0.1,0.2,0.1,0.4,0.3,0.5c0.2,0.2,0.5,0.4,0.8,0.4c0.3,0,0.6-0.1,0.8-0.4
			s0.4-0.5,0.4-0.8c0-0.3-0.1-0.6-0.4-0.8C-406,277-406.2,276.8-406.5,276.8z"/>
		<path class="st2" d="M-392,270.9c-0.4-0.7-1-1-1.8-1c-0.7,0-1.3,0.4-2,1.1c-0.1,0.2-0.5,0.6-1,1.3c-0.2,0.3-0.5,0.6-0.7,0.7
			c-0.2,0.1-0.5,0.2-0.9,0.2h-0.3c-1.1,0-1.6-0.7-1.6-2v-7c0-0.9-0.4-1.4-1.1-1.4c-0.4,0-0.6,0.2-0.8,0.4c-0.2,0.3-0.2,0.6-0.2,0.9
			l0.2,6.6c0.1,1.6,0.2,2.8,0.5,3.4c0.5,1,1.4,1.5,2.8,1.5h0.1h0.6h0.1c0.8,0,1.4-0.3,1.9-0.8c0.6,0.7,1.4,1.1,2.3,1.1
			c0.7,0,1.3-0.3,1.8-0.9c0.4-0.5,0.6-1.2,0.6-1.9C-391.4,272.2-391.6,271.5-392,270.9z M-393.9,273.8c-0.2,0-0.5-0.1-0.8-0.2
			c-0.3-0.2-0.5-0.4-0.5-0.6c0-0.3,0.1-0.5,0.4-0.8c0.3-0.2,0.5-0.4,0.8-0.4c0.3,0,0.5,0.1,0.6,0.4c0.1,0.2,0.2,0.5,0.2,0.8
			C-393,273.6-393.3,273.8-393.9,273.8z"/>
	</g>
</g>
</svg>
